<?xml version="1.0" encoding="utf-8"?>
<svg width="200px" height="200px" viewBox="0 0 200 200" version="1.1" xmlns:xlink="http://www.w3.org/1999/xlink" xmlns="http://www.w3.org/2000/svg">
  <g id="dog-haircut">
    <path d="M0 100C0 44.7715 44.7715 0 100 0C155.228 0 200 44.7715 200 100C200 155.228 155.228 200 100 200C44.7715 200 0 155.228 0 100Z" id="Background" fill="#FFFFFF" fill-rule="evenodd" stroke="none" />
    <g id="XMLID_106_" transform="translate(47.762794 39.6675)">
      <g id="XMLID_35_" transform="translate(0 36.13)">
        <path d="M80.3907 21.86L80.3907 67.465L25.4307 67.465C25.4307 67.1605 25.4277 21.5985 25.4357 21.295C25.6007 14.94 28.4707 9.265 32.9357 5.375C36.7807 2.025 41.7957 0 47.2907 0L58.5307 0C64.0307 0 69.0457 2.025 72.8907 5.38C77.4857 9.385 80.3907 15.28 80.3907 21.86L80.3907 21.86Z" id="XMLID_296_" fill="#B76C6C" fill-rule="evenodd" stroke="none" />
        <path d="M80.3907 21.86L80.3907 67.465L72.8907 67.465L72.8907 5.38C77.4857 9.385 80.3907 15.28 80.3907 21.86L80.3907 21.86Z" id="XMLID_295_" fill="#965959" fill-rule="evenodd" stroke="none" />
        <path d="M105.819 22.3535C97.5417 50.2845 97.9747 48.9295 97.7757 49.33C96.3152 52.265 92.2047 52.5735 90.3217 49.893C90.0697 49.534 91.5012 52.5645 68.2782 2.32L103.102 16.554C105.525 17.3255 106.777 19.998 105.819 22.3535L105.819 22.3535Z" id="XMLID_292_" fill="#B76C6C" fill-rule="evenodd" stroke="none" />
        <path d="M71.0562 86.5365L34.7822 86.5365C33.4017 86.5365 32.2822 85.417 32.2822 84.0365L32.2822 81.3585C32.2822 79.978 33.4017 78.8585 34.7822 78.8585L71.0567 78.8585C72.4372 78.8585 73.5567 79.978 73.5567 81.3585L73.5567 84.0365C73.5562 85.4175 72.4372 86.5365 71.0562 86.5365L71.0562 86.5365Z" id="XMLID_291_" fill="#FF4A73" fill-rule="evenodd" stroke="none" />
        <path d="M42.2842 86.535L34.7842 86.535C33.3992 86.535 32.2842 85.415 32.2842 84.035L32.2842 81.36C32.2842 79.98 33.3992 78.86 34.7842 78.86L42.2842 78.86C40.8992 78.86 39.7842 79.98 39.7842 81.36L39.7842 84.035C39.7842 85.415 40.8992 86.535 42.2842 86.535L42.2842 86.535Z" id="XMLID_290_" fill="#F973A3" fill-rule="evenodd" stroke="none" />
        <path d="M73.5542 81.36L73.5542 84.035C73.5542 85.415 72.4392 86.535 71.0542 86.535L63.5542 86.535C64.9392 86.535 66.0542 85.415 66.0542 84.035L66.0542 81.36C66.0542 79.98 64.9392 78.86 63.5542 78.86L71.0542 78.86C72.4392 78.86 73.5542 79.98 73.5542 81.36L73.5542 81.36Z" id="XMLID_289_" fill="#EA2A6A" fill-rule="evenodd" stroke="none" />
        <path d="M32.9357 5.375L32.9357 67.465L25.4357 67.465L25.4357 21.295C25.6007 14.94 28.4707 9.265 32.9357 5.375L32.9357 5.375Z" id="XMLID_288_" fill="#C98585" fill-rule="evenodd" stroke="none" />
        <path d="M72.1507 78.8585L33.6707 78.8585C26.6797 78.8585 21.0127 73.1915 21.0127 66.2005C21.0127 47.185 35.9177 33.733 52.9107 33.733L52.9107 33.733C70.5272 33.733 84.8087 48.014 84.8087 65.631C84.8087 73.765 78.7507 78.8585 72.1507 78.8585L72.1507 78.8585Z" id="XMLID_287_" fill="#FFBB98" fill-rule="evenodd" stroke="none" />
        <path d="M84.8152 65.629C84.8152 73.7625 78.7567 78.859 72.1552 78.859L64.6552 78.859C71.6452 78.859 77.3152 73.189 77.3152 66.199C77.3152 56.79 73.8622 48.966 67.9702 43.074C63.0302 38.134 56.4752 34.809 49.1652 33.954C50.3952 33.809 51.6452 33.734 52.9152 33.734C61.7252 33.734 69.7002 37.304 75.4702 43.074C81.2452 48.849 84.8152 56.819 84.8152 65.629L84.8152 65.629Z" id="XMLID_286_" fill="#FFAA80" fill-rule="evenodd" stroke="none" />
        <path d="M41.1832 78.86L33.6832 78.86C26.6932 78.86 21.0282 73.19 21.0282 66.2C21.0282 47.1865 35.9312 33.735 52.9232 33.735C54.1932 33.735 55.4432 33.81 56.6732 33.955C41.4747 35.734 28.5282 48.43 28.5282 66.2C28.5282 73.19 34.1932 78.86 41.1832 78.86L41.1832 78.86Z" id="XMLID_285_" fill="#FFCAA6" fill-rule="evenodd" stroke="none" />
        <path d="M54.5817 60.8415C46.3607 60.8415 42.5627 56.3585 42.5627 50.8415C42.5627 45.9735 44.6572 44.152 47.5627 44.152L59.5817 44.152C65.5382 44.152 64.5817 51.4885 64.5817 50.8415C64.5817 56.3645 60.1047 60.8415 54.5817 60.8415L54.5817 60.8415Z" id="XMLID_284_" fill="#B76C6C" fill-rule="evenodd" stroke="none" />
        <path d="M57.3242 60.455C56.4542 60.705 55.5342 60.84 54.5842 60.84C46.3597 60.84 42.5642 56.359 42.5642 50.84C42.5642 45.977 44.6517 44.15 47.5642 44.15L55.0642 44.15C52.1907 44.15 50.0642 45.9365 50.0642 50.84C50.0642 55.415 53.1342 59.27 57.3242 60.455L57.3242 60.455Z" id="XMLID_283_" fill="#C98585" fill-rule="evenodd" stroke="none" />
        <path d="M0.323205 22.2835C8.60021 50.2145 8.16721 48.8595 8.36671 49.26C9.82721 52.195 13.9372 52.5035 15.8207 49.823C16.0727 49.464 14.6412 52.495 37.8642 2.2495L3.04021 16.4835C0.616705 17.2555 -0.635296 19.928 0.323205 22.2835L0.323205 22.2835Z" id="XMLID_282_" fill="#B76C6C" fill-rule="evenodd" stroke="none" />
      </g>
      <path d="M87.5707 16.501L20.5812 16.501L20.5812 7.5C20.5812 3.358 23.9392 0 28.0812 0L80.0707 0C84.2127 0 87.5707 3.358 87.5707 7.5L87.5707 16.501L87.5707 16.501Z" id="XMLID_325_" fill="#FF4A73" fill-rule="evenodd" stroke="none" />
      <path d="M35.5807 4.76837e-07C31.4407 4.76837e-07 28.0807 3.36 28.0807 7.5L28.0807 16.5L20.5807 16.5L20.5807 7.5C20.5807 3.36 23.9407 0 28.0807 0L35.5807 0L35.5807 4.76837e-07Z" id="XMLID_324_" fill="#F973A3" fill-rule="evenodd" stroke="none" />
      <path d="M87.5707 7.5L87.5707 16.5L80.0707 16.5L80.0707 7.5C80.0707 3.36 76.7107 0 72.5707 0L80.0707 0C84.2107 4.76837e-07 87.5707 3.36 87.5707 7.5L87.5707 7.5Z" id="XMLID_323_" fill="#EA2A6A" fill-rule="evenodd" stroke="none" />
    </g>
    <path d="M84.4785 95.4175C84.8935 95.0325 88.6485 91.7525 93.5535 95.5525C95.6155 97.1625 98.128 94.0315 96.0035 92.3925C89.7835 87.5725 83.9285 90.3775 81.7085 92.5375C79.8305 94.3565 82.5575 97.2185 84.4785 95.4175L84.4785 95.4175ZM88.6735 97.3725C86.7085 97.3725 85.1135 98.9675 85.1135 100.938C85.1135 102.902 86.7085 104.497 88.6735 104.497C90.6435 104.497 92.2385 102.902 92.2385 100.938C92.2385 98.9675 90.6435 97.3725 88.6735 97.3725L88.6735 97.3725ZM108.283 95.4175C108.693 95.0325 112.448 91.7525 117.358 95.5525C119.397 97.1665 121.941 94.0415 119.803 92.3925C113.583 87.5725 107.733 90.3775 105.508 92.5375C103.636 94.351 106.355 97.226 108.283 95.4175L108.283 95.4175ZM112.473 97.3725C110.508 97.3725 108.913 98.9675 108.913 100.938C108.913 102.902 110.508 104.497 112.473 104.497C114.443 104.497 116.038 102.902 116.038 100.938C116.038 98.9675 114.443 97.3725 112.473 97.3725L112.473 97.3725ZM151.723 90.4725L117.313 76.4125L117.293 76.4025C114.044 74.7375 110.364 73.7975 106.464 73.7975L95.2185 73.7975C91.1185 73.7975 87.2585 74.8375 83.8835 76.6725L83.8585 76.6825L50.2785 90.4025C46.795 91.567 45.065 95.4 46.3585 98.7325C54.7585 127.082 54.21 125.352 54.5035 125.947C56.6495 130.251 62.6405 130.683 65.3885 126.767C65.7475 126.252 65.3655 127.007 71.3635 114.032L71.3635 124.702C64.5255 136.702 64.6575 153.137 78.2985 156.277C78.1885 156.847 78.2135 156.93 78.2135 159.832C78.2135 162.317 80.2285 164.332 82.7135 164.332L118.983 164.332C121.468 164.332 123.483 162.317 123.483 159.832C123.483 156.929 123.508 156.842 123.398 156.272C136.956 153.139 137.184 136.751 130.318 124.702L130.318 113.417C136.615 127.043 136.245 126.317 136.613 126.842C139.369 130.758 145.363 130.311 147.493 126.018C147.779 125.447 147.223 127.203 155.638 98.8025C156.943 95.4425 155.187 91.6305 151.723 90.4725L151.723 90.4725ZM87.3635 79.4225C89.7735 78.3775 92.4285 77.7975 95.2185 77.7975L106.464 77.7975C109.393 77.7975 112.178 78.4375 114.683 79.5875L126.318 104.762L126.318 119.092C120.098 112.007 110.983 107.533 100.839 107.533C90.6985 107.533 81.5785 112.007 75.3635 119.092L75.3635 105.378L87.3635 79.4225L87.3635 79.4225ZM62.1135 124.473C61.1025 125.911 58.874 125.745 58.0885 124.167C57.9745 123.939 50.1995 97.5575 50.1035 97.3275C49.5845 96.0505 50.2695 94.6015 51.5735 94.1875C51.6355 94.1705 81.7825 81.8475 81.8435 81.8225C81.79 81.939 62.1875 124.368 62.1135 124.473L62.1135 124.473ZM119.483 159.832C119.483 160.107 119.263 160.332 118.983 160.332L82.7135 160.332C82.4335 160.332 82.2135 160.107 82.2135 159.832L82.2135 157.157C82.2135 156.882 82.4335 156.657 82.7135 156.657L118.983 156.657C119.263 156.657 119.483 156.882 119.483 157.157L119.483 159.832L119.483 159.832ZM120.078 152.658C118.231 152.658 83.484 152.658 81.5985 152.658C68.507 152.658 68.73 136.561 75.3635 125.803C80.6285 117.247 90.0785 111.533 100.838 111.533C111.598 111.533 121.053 117.247 126.318 125.803C133.013 136.676 133.155 152.658 120.078 152.658L120.078 152.658ZM151.828 97.5825C151.786 97.7245 143.979 124.105 143.913 124.238C143.128 125.816 140.902 125.985 139.888 124.542C139.804 124.423 120.214 82.0245 120.153 81.8925C128.034 85.1125 120.664 82.1005 150.273 94.2025C151.765 94.799 152.406 95.851 151.828 97.5825L151.828 97.5825ZM116.193 137.048C116.193 144.824 104.993 146.174 103.153 138.622C109.473 138.288 114.513 133.042 114.513 126.637C114.513 120.589 111.432 117.947 107.513 117.947L95.4935 117.947C91.7075 117.947 88.4935 120.443 88.4935 126.637C88.4935 132.613 92.8785 137.577 98.6035 138.488C96.888 146.244 85.5335 144.831 85.5335 137.048C85.5335 134.405 81.5335 134.401 81.5335 137.048C81.5335 147.365 94.9505 151.65 100.863 143.098C106.72 151.57 120.193 147.471 120.193 137.048C120.193 134.405 116.193 134.401 116.193 137.048L116.193 137.048ZM92.4935 126.637C92.4935 125.887 92.012 121.947 95.4935 121.947L107.514 121.947C110.876 121.947 110.514 125.598 110.514 126.637C110.513 137.373 92.4935 137.357 92.4935 126.637L92.4935 126.637ZM70.3335 71.1675L70.3335 58.1675L77.8335 58.1675L77.8335 71.1675C77.8335 73.81 81.8335 73.8135 81.8335 71.1675L81.8335 58.1675L88.8335 58.1675L88.8335 71.1675C88.8335 73.81 92.8335 73.8135 92.8335 71.1675L92.8335 58.1675L99.8335 58.1675L99.8335 71.1675C99.8335 73.81 103.833 73.8135 103.833 71.1675L103.833 58.1675L110.833 58.1675L110.833 71.1675C110.833 73.81 114.833 73.8135 114.833 71.1675L114.833 58.1675L121.833 58.1675L121.833 71.1675C121.833 73.81 125.833 73.8135 125.833 71.1675L125.833 58.1675L133.333 58.1675L133.333 71.1675C133.333 73.81 137.333 73.8135 137.333 71.1675C137.333 68.8275 137.333 49.8515 137.333 47.1675C137.333 41.9275 133.073 37.6675 127.833 37.6675L75.8435 37.6675C70.6035 37.6675 66.3435 41.9275 66.3435 47.1675C66.3435 50.5475 66.3335 54.0065 66.3335 71.1675C66.3335 73.81 70.3335 73.8135 70.3335 71.1675L70.3335 71.1675ZM70.3435 47.1675C70.3435 44.1325 72.8135 41.6675 75.8435 41.6675L127.833 41.6675C130.868 41.6675 133.333 44.1325 133.333 47.1675L133.333 54.1675L70.3435 54.1675L70.3435 47.1675L70.3435 47.1675ZM125.333 46.1675L123.333 46.1675C120.691 46.1675 120.687 50.1675 123.333 50.1675L125.333 50.1675C127.976 50.1675 127.98 46.1675 125.333 46.1675L125.333 46.1675ZM115.833 46.1675L105.833 46.1675C103.191 46.1675 103.187 50.1675 105.833 50.1675L115.833 50.1675C118.476 50.1675 118.48 46.1675 115.833 46.1675L115.833 46.1675Z" id="XMLID_62_" fill="#5F266D" fill-rule="evenodd" stroke="none" />
  </g>
</svg>