<svg xmlns="http://www.w3.org/2000/svg"  viewBox="0 0 256 256" width="64px" height="64px"><path fill="#f9a7a7" d="M77.696,164.163L77.696,164.163c-15.464,0-28,12.536-28,28v24c0,2.406,0.274,4.746,0.777,7 c-7.996,2.618-13.777,10.129-13.777,19c0,3.314,2.686,6,6,6h39h25v-26v-29C106.696,177.146,93.712,164.163,77.696,164.163z"/><path fill="#a4c9ff" d="M77.696,164.163L77.696,164.163c-15.464,0-28,12.536-28,28V204h57v-10.837 C106.695,177.146,93.712,164.163,77.696,164.163z"/><path fill="#3762cc" d="M106.695,250.163h-64c-4.411,0-8-3.589-8-8c0-8.937,5.352-16.876,13.488-20.28 c-0.324-1.898-0.488-3.816-0.488-5.72v-24c0-16.542,13.458-30,30-30h0c17.093,0,31,13.907,31,31v55 C108.695,249.267,107.8,250.163,106.695,250.163z M77.696,166.163c-14.337,0-26,11.664-26,26v24c0,2.187,0.246,4.396,0.729,6.564 c0.224,1.005-0.351,2.016-1.33,2.336c-7.417,2.428-12.4,9.3-12.4,17.099c0,2.206,1.794,4,4,4h62v-53 C104.695,178.275,92.583,166.163,77.696,166.163z"/><rect width="57" height="14" x="45.695" y="198" fill="#e0ebfc"/><path fill="#3762cc" d="M102.695,214h-57c-1.104,0-2-0.896-2-2v-14c0-1.104,0.896-2,2-2h57c1.104,0,2,0.896,2,2v14 C104.695,213.104,103.8,214,102.695,214z M47.695,210h53v-10h-53V210z"/><path fill="#f9cfcf" d="M219.081,121.391c0.001-0.183,0.008-0.359,0.009-0.542c0.002-0.52-0.049-1.027-0.137-1.519 c0-0.002,0-0.013,0-0.013l-0.001,0.006c-0.069-0.386-0.159-0.765-0.276-1.13c-0.002-0.013-0.006-0.034-0.006-0.034l-0.003,0.007 c-1.005-3.106-3.713-5.35-6.915-5.377c-4.051-0.026-7.378,3.521-7.394,7.939c-0.001,0.138-0.004,0.272-0.005,0.41 c-0.053,0.629-0.755,8.841-1.498,13.561c-13.965,72.387-78.101,76.552-78.101,76.552l0.237,10.409 c-0.194,0.773-0.286,1.591-0.254,2.435c0.028,0.747,0.156,1.464,0.359,2.143l0.388,17.008c0,0,84.591-8.487,93.03-100.539 l0.007,0.007c0.002-0.058,0.005-0.121,0.007-0.18c0.386-4.268,0.618-8.705,0.661-13.339l0.013,0.006 C219.409,126.217,219.269,123.424,219.081,121.391z"/><path fill="#f9cfcf" d="M219.081,121.391c0.001-0.183,0.008-0.359,0.009-0.542c0.002-0.52-0.049-1.027-0.137-1.519 c0-0.002,0-0.013,0-0.013l-0.001,0.006c-0.069-0.386-0.159-0.765-0.276-1.13c-0.002-0.013-0.006-0.034-0.006-0.034l-0.003,0.007 c-1.005-3.106-3.713-5.35-6.915-5.377c-4.051-0.026-7.378,3.521-7.394,7.939c-0.001,0.138-0.004,0.272-0.005,0.41 c-0.053,0.629-0.755,8.841-1.498,13.561c-13.965,72.387-78.101,76.552-78.101,76.552l0.237,10.409 c-0.194,0.773-0.286,1.591-0.254,2.435c0.028,0.747,0.156,1.464,0.359,2.143l0.388,17.008c0,0,84.591-8.487,93.03-100.539 l0.007,0.007c0.002-0.058,0.005-0.121,0.007-0.18c0.386-4.268,0.618-8.705,0.661-13.339l0.013,0.006 C219.409,126.217,219.269,123.424,219.081,121.391z"/><path fill="#3762cc" d="M125.483,245.245c-0.486,0-0.958-0.177-1.325-0.501c-0.417-0.369-0.662-0.896-0.675-1.453l-0.382-16.752 c-0.211-0.782-0.334-1.577-0.364-2.368c-0.035-0.917,0.049-1.831,0.248-2.722l-0.231-10.152c-0.024-1.07,0.8-1.97,1.868-2.041 c0.157-0.011,15.917-1.16,33.109-10.96c22.977-13.099,37.497-34.623,43.16-63.975c0.685-4.363,1.361-12.099,1.463-13.282 l0.004-0.311c0.01-2.755,1.099-5.404,2.987-7.274c1.751-1.734,4.019-2.673,6.42-2.665c3.918,0.032,7.414,2.679,8.753,6.605 c0.039,0.095,0.071,0.194,0.096,0.297c0.112,0.365,0.206,0.745,0.283,1.153c0.02,0.081,0.034,0.163,0.044,0.246 c0.101,0.599,0.15,1.192,0.148,1.766l-0.007,0.46c0.252,2.791,0.29,5.49,0.113,8.024c-0.002,0.033-0.005,0.065-0.009,0.098 c-0.049,4.433-0.271,8.88-0.664,13.224c0,0.022-0.001,0.042-0.001,0.043c-0.003,0.07-0.01,0.14-0.02,0.209 c-4.442,48.358-29.979,73.614-50.623,86.285c-22.336,13.71-43.315,15.947-44.197,16.036 C125.616,245.242,125.55,245.245,125.483,245.245z M126.795,213.053l0.195,8.561c0.004,0.18-0.016,0.359-0.06,0.533 c-0.153,0.61-0.219,1.24-0.195,1.872c0.021,0.546,0.114,1.1,0.277,1.646c0.051,0.171,0.079,0.348,0.083,0.526l0.336,14.761 c5.879-0.943,22.955-4.445,40.493-15.247c28.813-17.745,45.164-45.732,48.598-83.182c0.002-0.023,0.004-0.046,0.007-0.07 c0.002-0.041,0.005-0.083,0.006-0.101c0.393-4.327,0.612-8.76,0.654-13.177c0.001-0.113,0.012-0.224,0.031-0.333 c0.145-2.263,0.1-4.771-0.131-7.269c-0.006-0.064-0.009-0.129-0.009-0.194l0.009-0.531c0.001-0.382-0.033-0.762-0.105-1.167 c-0.002-0.009-0.003-0.018-0.005-0.027c-0.057-0.309-0.126-0.595-0.208-0.851c-0.001-0.001-0.001-0.001-0.001-0.002 c-0.002-0.007-0.004-0.013-0.007-0.02c-0.767-2.37-2.786-3.974-5.027-3.993c-1.306-0.012-2.587,0.527-3.576,1.507 c-1.139,1.128-1.796,2.746-1.802,4.439l-0.005,0.417c0,0.052-0.003,0.104-0.007,0.156c-0.127,1.486-0.797,9.131-1.516,13.702 c-7.37,38.209-28.688,57.437-45.276,66.85C144.954,210.145,131.639,212.455,126.795,213.053z"/><path fill="#f9a7a7" d="M202.918,223.163c0.503-2.254,0.777-4.594,0.777-7v-24c0-15.464-12.536-28-28-28h0c-16.016,0-29,12.984-29,29 v29v26h25h39c3.314,0,6-2.686,6-6C216.696,233.292,210.915,225.781,202.918,223.163z"/><path fill="#a4c9ff" d="M175.695,164.163L175.695,164.163c-16.016,0-29,12.984-29,29V204h57v-11.837 C203.695,176.699,191.159,164.163,175.695,164.163z"/><path fill="#3762cc" d="M210.695,250.163h-64c-1.104,0-2-0.896-2-2v-55c0-17.093,13.906-31,31-31c16.542,0,30,13.458,30,30v24 c0,1.907-0.164,3.824-0.487,5.72c8.137,3.404,13.487,11.344,13.487,20.28C218.695,246.574,215.106,250.163,210.695,250.163z M148.695,246.163h62c2.206,0,4-1.794,4-4c0-7.799-4.983-14.671-12.399-17.099c-0.979-0.321-1.555-1.332-1.33-2.337 c0.484-2.164,0.729-4.372,0.729-6.563v-24c0-14.336-11.663-26-26-26c-14.888,0-27,12.112-27,27V246.163z"/><rect width="57" height="14" x="150.695" y="198" fill="#e0ebfc"/><path fill="#3762cc" d="M207.695,214h-57c-1.104,0-2-0.896-2-2v-14c0-1.104,0.896-2,2-2h57c1.104,0,2,0.896,2,2v14 C209.695,213.104,208.8,214,207.695,214z M152.695,210h53v-10h-53V210z"/><path fill="#f9a7a7" d="M186.019,188.848c1.116,6.844,1.677,13.756,1.677,20.678v0.308c0,21.168-18.565,38.329-41.467,38.329h-39.066 c-22.902,0-41.467-17.16-41.467-38.329v0c0-7.127,0.577-14.244,1.727-21.291v0l10.501-64.38h97.546l10.468,64.182L186.019,188.848 z"/><path fill="#a4c9ff" d="M186.019,188.848l-0.082-0.503l-10.468-64.182H151V137c0,13.807-11.193,25-25,25s-25-11.193-25-25v-12.837 H77.923l-10.501,64.38c-1.149,7.047-1.727,14.164-1.727,21.291l0,0c0,21.168,18.565,38.329,41.467,38.329h39.066 c22.902,0,41.467-17.16,41.467-38.329v-0.308C187.695,202.604,187.135,195.692,186.019,188.848z"/><path fill="#f9a7a7" d="M83.538,164.326v11.943c0,22.881,2.001,45.718,5.98,68.25l0,0c0.372,2.109,2.205,3.646,4.346,3.646 l25.06-0.111l0.032,0c1.517-0.013,2.739-1.246,2.739-2.763v-55.128c0-2.209,1.791-4,4-4c0.036,0,0.069,0.01,0.105,0.011 c0.036-0.001,0.069-0.011,0.105-0.011c0.454,0,0.881,0.109,1.267,0.29c1.476,0.588,2.523,2.024,2.523,3.71l0,54.876 c0,1.159,0.657,2.258,1.732,2.692c0.45,0.182,0.941,0.283,1.456,0.286l26.643,0.148c2.141,0,3.974-1.537,4.346-3.646l0-0.001 c3.979-22.532,5.98-45.369,5.98-68.25v-11.943H83.538z"/><path fill="#3762cc" d="M146.229,250.163h-39.066c-23.968,0-43.467-18.091-43.467-40.329c0-7.211,0.59-14.482,1.752-21.613 l10.501-64.38c0.158-0.968,0.994-1.678,1.974-1.678h97.546c0.98,0,1.816,0.71,1.974,1.678l10.55,64.685 c1.13,6.928,1.703,13.994,1.703,21v0.308C189.695,232.071,170.196,250.163,146.229,250.163z M79.623,126.163l-10.227,62.702 c-1.128,6.918-1.701,13.974-1.701,20.969c0,20.032,17.705,36.329,39.467,36.329h39.066c21.762,0,39.467-16.297,39.467-36.329 v-0.308c0-6.792-0.556-13.64-1.65-20.356l0,0l-10.276-63.007H79.623z"/><path fill="#f9cfcf" d="M129.696,230.163v14.876c0,1.159,0.657,2.258,1.732,2.692c0.45,0.182,0.941,0.283,1.456,0.286l26.205,0.146 h0.465c2.129-0.013,3.948-1.544,4.319-3.643l0-0.001c0.843-4.772,1.577-9.56,2.242-14.356H129.696z"/><path fill="#f9cfcf" d="M118.924,248.054l0.032,0c1.517-0.013,2.74-1.246,2.74-2.763v-15.128H87.276 c0.665,4.797,1.399,9.585,2.242,14.357v0c0.371,2.1,2.189,3.63,4.319,3.643h0.577L118.924,248.054z"/><path fill="#a4c9ff" d="M83.538,176.269c0,11.6,0.519,23.188,1.545,34.731h36.613v-20.837c0-2.209,1.791-4,4-4 c0.036,0,0.069,0.01,0.105,0.011c0.036-0.001,0.069-0.011,0.105-0.011c0.454,0,0.881,0.109,1.267,0.29 c1.476,0.588,2.523,2.024,2.523,3.71V211h38.613c1.026-11.543,1.545-23.131,1.545-34.731v-11.943H83.538V176.269z"/><path fill="#3762cc" d="M159.527,250.165l-26.654-0.148c-0.758-0.004-1.496-0.149-2.194-0.432c-1.785-0.722-2.983-2.549-2.983-4.546 v-54.876c0-0.819-0.496-1.547-1.263-1.853c-0.036-0.015-0.071-0.03-0.106-0.046c-0.12-0.056-0.234-0.088-0.348-0.098 c-0.032,0.003-0.063,0.005-0.095,0.006c-0.045,0.001-0.092,0-0.137,0c-0.037-0.001-0.084-0.004-0.132-0.008 c-1.065,0.043-1.919,0.923-1.919,1.999v55.128c0,2.604-2.119,4.741-4.723,4.763l-25.1,0.111c-3.126,0-5.783-2.228-6.325-5.298 c-3.988-22.584-6.01-45.664-6.01-68.598v-11.943c0-1.104,0.896-2,2-2s2,0.896,2,2v11.943c0,22.701,2.001,45.547,5.95,67.903 c0.204,1.155,1.203,1.993,2.376,1.993l25.051-0.111c0.441-0.003,0.78-0.346,0.78-0.763v-55.128c0-3.309,2.691-6,6-6 c0.029,0,0.062,0.001,0.098,0.003c0.732-0.039,1.476,0.133,2.173,0.45c2.267,0.928,3.729,3.099,3.729,5.547v54.876 c0,0.378,0.198,0.723,0.481,0.838c0.227,0.091,0.469,0.139,0.719,0.14l26.643,0.148c1.162,0,2.161-0.838,2.365-1.993 c3.947-22.357,5.949-45.203,5.949-67.903v-11.943c0-1.104,0.896-2,2-2s2,0.896,2,2v11.943c0,22.933-2.022,46.012-6.01,68.597 C165.301,247.937,162.646,250.165,159.527,250.165z"/><path fill="#e0ebfc" d="M155,138.504v-14.342h-4V137c0,13.807-11.193,25-25,25s-25-11.193-25-25v-12.837h-4v14.342 C97,154.242,109.758,167,125.496,167h1.009C142.242,167,155,154.242,155,138.504z"/><path fill="#f9a7a7" d="M187.283,12.03c1.87,6.422,3.964,21.819-8.294,43.938l-38.309-32.145 c19.654-15.913,35.18-16.524,41.83-15.798C184.771,8.271,186.646,9.845,187.283,12.03z"/><path fill="#f9a7a7" d="M66.108,12.03c-1.87,6.422-3.964,21.819,8.294,43.938l38.309-32.145C93.058,7.909,77.532,7.298,70.882,8.024 C68.62,8.271,66.745,9.845,66.108,12.03z"/><path fill="#3762cc" d="M178.988,57.968c-0.467,0-0.923-0.163-1.285-0.468l-38.31-32.146c-0.458-0.384-0.72-0.953-0.715-1.55 s0.277-1.161,0.741-1.537C159.269,6.197,175.076,5.2,182.726,6.036c3.071,0.335,5.614,2.469,6.477,5.436 c2.153,7.392,3.915,23.128-8.465,45.466c-0.289,0.522-0.797,0.888-1.385,0.997C179.231,57.957,179.109,57.968,178.988,57.968z M143.847,23.87l34.545,28.987c10.803-20.699,8.511-34.978,6.971-40.267c0,0,0,0,0,0c-0.409-1.406-1.614-2.417-3.07-2.576 C176.814,9.412,162.357,9.634,143.847,23.87z"/><path fill="#3762cc" d="M74.403,57.968c-0.121,0-0.243-0.011-0.365-0.034c-0.587-0.109-1.095-0.474-1.385-0.997 c-12.379-22.336-10.617-38.074-8.465-45.466l0,0c0.864-2.966,3.406-5.1,6.477-5.435c7.652-0.837,23.457,0.16,43.306,16.232 c0.464,0.375,0.736,0.939,0.742,1.537s-0.257,1.166-0.714,1.55L75.688,57.5C75.325,57.805,74.869,57.968,74.403,57.968z M68.029,12.589c-1.54,5.29-3.832,19.569,6.971,40.267l34.545-28.987C91.035,9.636,76.576,9.415,71.1,10.013 C69.644,10.171,68.438,11.183,68.029,12.589L68.029,12.589z"/><path fill="#f9cfcf" d="M71.696,88.067v-19c0-25.405,20.595-46,46-46h18c25.405,0,46,20.595,46,46v19c0,8.284-6.716,15-15,15h-80 C78.411,103.067,71.696,96.351,71.696,88.067z"/><path fill="#f9a7a7" d="M102.696,88.163c8.837,0,16-7.163,16-16v-49h-3.843c-24.08,1.47-43.157,21.455-43.157,45.904v19 c0,0.032,0.005,0.064,0.005,0.096H102.696z"/><path fill="#f9a7a7" d="M138.539,23.163h-3.843v49c0,8.837,7.163,16,16,16h30.995c0-0.032,0.005-0.064,0.005-0.096v-19 C181.696,44.617,162.618,24.632,138.539,23.163z"/><path fill="#f9cfcf" d="M176.501,44.209c4.865-11.529,5.194-20.242,4.548-25.661c-0.231-1.939-1.927-3.362-3.876-3.253 c-5.449,0.305-13.972,2.142-24.482,8.935L176.501,44.209z"/><path fill="#f9cfcf" d="M76.89,44.209c-4.865-11.529-5.194-20.242-4.548-25.661c0.231-1.939,1.927-3.362,3.876-3.253 c5.449,0.305,13.972,2.142,24.482,8.935L76.89,44.209z"/><path fill="#3762cc" d="M99.101,80.55h-0.007c-3.046,0-5.516-2.47-5.516-5.516v-6.619c0-3.046,2.47-5.516,5.516-5.516h0.007 c3.046,0,5.516,2.47,5.516,5.516v6.619C104.617,78.08,102.147,80.55,99.101,80.55z"/><path fill="#3762cc" d="M154.297,80.55h-0.007c-3.046,0-5.516-2.47-5.516-5.516v-6.619c0-3.046,2.47-5.516,5.516-5.516h0.007 c3.046,0,5.516,2.47,5.516,5.516v6.619C159.814,78.08,157.344,80.55,154.297,80.55z"/><path fill="#3762cc" d="M166.695,105.067h-80c-9.374,0-17-7.626-17-17v-19c0-26.467,21.533-48,48-48h18c26.468,0,48,21.533,48,48v19 C183.695,97.441,176.069,105.067,166.695,105.067z M117.695,25.067c-24.262,0-44,19.738-44,44v19c0,7.168,5.832,13,13,13h80 c7.168,0,13-5.832,13-13v-19c0-24.262-19.738-44-44-44H117.695z"/><path fill="#f9cfcf" d="M60.696,113.904v-0.689c0-17.483,14.173-31.656,31.656-31.656h68.689c17.483,0,31.656,14.173,31.656,31.656 v0.689c0,17.483-14.173,31.656-31.656,31.656l-68.689,0C74.868,145.559,60.696,131.387,60.696,113.904z"/><path fill="#e0ebfc" d="M140.348,145.929h-28c-8.837,0-16-7.163-16-16v-16c0-8.837,7.163-16,16-16h28c8.837,0,16,7.163,16,16v16 C156.348,138.766,149.184,145.929,140.348,145.929z"/><path fill="#3762cc" d="M137.838,119.663c-4.353,0-8.355-1.482-11.143-4.05c-2.786,2.568-6.79,4.05-11.143,4.05 c-8.192,0-14.857-5.383-14.857-12c0-1.104,0.896-2,2-2s2,0.896,2,2c0,4.411,4.871,8,10.857,8c3.958,0,7.612-1.615,9.535-4.215 c0.754-1.02,2.461-1.02,3.216,0c1.923,2.6,5.577,4.215,9.535,4.215c5.986,0,10.857-3.589,10.857-8c0-1.104,0.896-2,2-2 s2,0.896,2,2C152.695,114.279,146.03,119.663,137.838,119.663z"/><g><path fill="#4671c6" d="M131.42,104.929h-10.144c-3.826,0-6.928-3.102-6.928-6.928v-2.453c0-2.551,2.068-4.619,4.619-4.619h14.762 c2.551,0,4.619,2.068,4.619,4.619v2.453C138.348,101.827,135.246,104.929,131.42,104.929z"/></g><g><path fill="#3762cc" d="M161.04,147.56H92.351c-18.558,0-33.656-15.098-33.656-33.656v-0.688c0-18.558,15.098-33.656,33.656-33.656 h68.689c18.558,0,33.655,15.098,33.655,33.656v0.688C194.695,132.461,179.598,147.56,161.04,147.56z M92.351,83.56 c-16.352,0-29.656,13.304-29.656,29.656v0.688c0,16.352,13.304,29.656,29.656,29.656h68.689c16.352,0,29.655-13.304,29.655-29.656 v-0.688c0-16.352-13.304-29.656-29.655-29.656H92.351z"/></g></svg>