<?xml version="1.0" encoding="utf-8"?>
<svg width="200px" height="200px" viewBox="0 0 200 200" version="1.1" xmlns:xlink="http://www.w3.org/1999/xlink" xmlns="http://www.w3.org/2000/svg">
  <g id="dog-health">
    <path d="M0 100C0 44.7715 44.7715 0 100 0C155.228 0 200 44.7715 200 100C200 155.228 155.228 200 100 200C44.7715 200 0 155.228 0 100Z" id="Background" fill="#FFFFFF" fill-rule="evenodd" stroke="none" />
    <path d="M121.486 123.475L80.2005 123.475C80.2005 123.475 67.186 134.766 67.686 154.758L92.107 154.758L109.579 154.758L134 154.758C134.5 134.765 121.486 123.475 121.486 123.475L121.486 123.475Z" id="Shape" fill="#B76C6C" stroke="none" />
    <path d="M75.185 154.76L67.685 154.76C67.185 134.765 80.2 123.475 80.2 123.475L87.7 123.475C87.7 123.475 74.685 134.765 75.185 154.76L75.185 154.76Z" id="Shape" fill="#C98585" stroke="none" />
    <path d="M134 154.76L126.5 154.76C127 134.765 113.985 123.475 113.985 123.475L121.485 123.475C121.485 123.475 134.5 134.765 134 154.76L134 154.76Z" id="Shape" fill="#965959" stroke="none" />
    <path d="M128.32 61.234L128.32 106.839L73.36 106.839L73.36 61.234C73.36 61.044 73.36 60.859 73.365 60.669C73.53 54.314 76.4 48.639 80.865 44.749C84.71 41.399 89.725 39.374 95.22 39.374L106.46 39.374C111.96 39.374 116.975 41.399 120.82 44.754C125.415 48.759 128.32 54.654 128.32 61.234L128.32 61.234Z" id="XMLID_471_" fill="#B76C6C" stroke="none" />
    <path d="M128.32 61.234L128.32 106.839L120.82 106.839L120.82 44.754C125.415 48.759 128.32 54.654 128.32 61.234L128.32 61.234Z" id="XMLID_470_" fill="#965959" stroke="none" />
    <path d="M153.748 61.7275L145.947 88.0515C145.882 88.274 145.809 88.496 145.705 88.704C144.245 91.639 140.134 91.9475 138.251 89.267C138.114 89.072 138.007 88.8575 137.906 88.641L116.207 41.694L151.031 55.928C153.454 56.6995 154.706 59.372 153.748 61.7275L153.748 61.7275Z" id="XMLID_467_" fill="#B76C6C" stroke="none" />
    <path d="M118.986 125.91L82.7115 125.91C81.331 125.91 80.2115 124.791 80.2115 123.41L80.2115 120.732C80.2115 119.352 81.331 118.232 82.7115 118.232L118.986 118.232C120.367 118.232 121.486 119.352 121.486 120.732L121.486 123.41C121.486 124.791 120.366 125.91 118.986 125.91L118.986 125.91Z" id="XMLID_466_" fill="#FF4A73" stroke="none" />
    <path d="M90.2135 125.909L82.7135 125.909C81.3285 125.909 80.2135 124.789 80.2135 123.409L80.2135 120.734C80.2135 119.354 81.3285 118.234 82.7135 118.234L90.2135 118.234C88.8285 118.234 87.7135 119.354 87.7135 120.734L87.7135 123.409C87.7135 124.789 88.8285 125.909 90.2135 125.909L90.2135 125.909Z" id="XMLID_465_" fill="#F973A3" stroke="none" />
    <path d="M121.483 120.734L121.483 123.409C121.483 124.789 120.368 125.909 118.983 125.909L111.483 125.909C112.868 125.909 113.983 124.789 113.983 123.409L113.983 120.734C113.983 119.354 112.868 118.234 111.483 118.234L118.983 118.234C120.368 118.234 121.483 119.354 121.483 120.734L121.483 120.734Z" id="XMLID_464_" fill="#EA2A6A" stroke="none" />
    <path d="M80.865 44.749L80.865 106.839L73.365 106.839L73.365 60.669C73.53 54.314 76.4 48.639 80.865 44.749L80.865 44.749Z" id="XMLID_463_" fill="#C98585" stroke="none" />
    <path d="M120.08 118.232L81.6 118.232C74.609 118.232 68.942 112.565 68.942 105.575L68.942 105.005C68.942 87.3885 83.223 73.107 100.84 73.107L100.84 73.107C118.456 73.107 132.738 87.388 132.738 105.005L132.738 105.575C132.738 112.565 127.071 118.232 120.08 118.232L120.08 118.232Z" id="XMLID_462_" fill="#FFBB98" stroke="none" />
    <path d="M132.738 105.004L132.738 105.574C132.738 112.564 127.069 118.234 120.079 118.234L112.579 118.234C119.569 118.234 125.239 112.564 125.239 105.574L125.239 105.004C125.239 96.194 121.669 88.224 115.894 82.449C110.954 77.509 104.399 74.184 97.0885 73.329C98.3185 73.184 99.5685 73.109 100.839 73.109C109.649 73.109 117.624 76.679 123.394 82.449C129.169 88.224 132.738 96.194 132.738 105.004L132.738 105.004Z" id="XMLID_461_" fill="#FFAA80" stroke="none" />
    <path d="M89.0985 118.234L81.5985 118.234C74.6085 118.234 68.9435 112.564 68.9435 105.574L68.9435 105.004C68.9435 87.389 83.2235 73.109 100.839 73.109C102.108 73.109 103.358 73.184 104.589 73.329C88.7385 75.184 76.4435 88.659 76.4435 105.004L76.4435 105.574C76.4435 112.564 82.1085 118.234 89.0985 118.234L89.0985 118.234Z" id="XMLID_460_" fill="#FFCAA6" stroke="none" />
    <path d="M102.511 100.215L100.492 100.215C94.969 100.215 90.492 95.7385 90.492 90.2155L90.492 88.526C90.492 85.7645 92.7305 83.526 95.492 83.526L107.511 83.526C110.273 83.526 112.511 85.7645 112.511 88.526L112.511 90.2155C112.511 95.7385 108.034 100.215 102.511 100.215L102.511 100.215Z" id="XMLID_459_" fill="#B76C6C" stroke="none" />
    <path d="M105.253 99.829C104.383 100.079 103.464 100.214 102.514 100.214L100.493 100.214C94.9685 100.214 90.4935 95.739 90.4935 90.214L90.4935 88.524C90.4935 85.764 92.7285 83.524 95.4935 83.524L102.993 83.524C100.229 83.524 97.9935 85.764 97.9935 88.524L97.9935 90.214C97.9935 94.789 101.063 98.644 105.253 99.829L105.253 99.829Z" id="XMLID_458_" fill="#C98585" stroke="none" />
    <path d="M48.252 61.6575L56.0525 87.9815C56.1185 88.204 56.1915 88.426 56.295 88.634C57.7555 91.569 61.8655 91.8775 63.749 89.197C63.886 89.002 63.9935 88.7875 64.0935 88.571L85.793 41.624L50.969 55.858C48.5455 56.6295 47.294 59.302 48.252 61.6575L48.252 61.6575Z" id="XMLID_457_" fill="#B76C6C" stroke="none" />
    <path d="M158.375 162.508L43.4855 162.508C41.3455 162.508 39.6105 160.773 39.6105 158.633L39.6105 158.633C39.6105 156.493 41.3455 154.758 43.4855 154.758L158.375 154.758C160.515 154.758 162.25 156.493 162.25 158.633L162.25 158.633C162.25 160.773 160.515 162.508 158.375 162.508L158.375 162.508Z" id="Shape" fill="#3193F3" stroke="none" />
    <path d="M75.862 154.758L40.8335 154.758L40.8335 141.508C40.8335 138.746 43.072 136.508 45.8335 136.508L70.8625 136.508C73.624 136.508 75.8625 138.746 75.8625 141.508L75.8625 154.758L75.862 154.758Z" id="Shape" fill="#FFE2E2" stroke="none" />
    <path d="M64.6525 123.686C59.7045 127.42 60.6775 127.091 52.8195 127.091C48.961 127.091 45.833 130.219 45.833 134.077L45.833 136.508L68.139 136.508L68.139 125.423C68.1395 123.627 66.0865 122.604 64.6525 123.686L64.6525 123.686Z" id="Shape" fill="#44C7B6" stroke="none" />
    <path d="M50.985 162.51L43.485 162.51C41.345 162.51 39.61 160.775 39.61 158.635C39.61 157.56 40.045 156.595 40.745 155.895C41.445 155.19 42.415 154.76 43.485 154.76L50.985 154.76C49.915 154.76 48.945 155.19 48.245 155.895C47.545 156.595 47.11 157.56 47.11 158.635C47.11 160.775 48.845 162.51 50.985 162.51L50.985 162.51Z" id="Shape" fill="#35B1FC" stroke="none" />
    <path d="M53.335 136.51C50.57 136.51 48.335 138.745 48.335 141.51L48.335 154.76L40.835 154.76L40.835 141.51C40.835 138.745 43.07 136.51 45.835 136.51L53.335 136.51L53.335 136.51Z" id="Shape" fill="#FFEFEE" stroke="none" />
    <path d="M68.14 125.425L68.14 126.485C66.59 127.21 65.065 127.09 60.32 127.09C56.46 127.09 53.335 130.22 53.335 134.075L53.335 136.51L45.835 136.51L45.835 134.075C45.835 130.22 48.96 127.09 52.82 127.09C60.68 127.09 59.705 127.42 64.65 123.685C66.085 122.605 68.14 123.625 68.14 125.425L68.14 125.425Z" id="Shape" fill="#4BDBC3" stroke="none" />
    <path d="M75.86 141.51L75.86 154.76L68.36 154.76L68.36 141.51C68.36 138.745 66.125 136.51 63.36 136.51L70.86 136.51C73.625 136.51 75.86 138.745 75.86 141.51L75.86 141.51Z" id="Shape" fill="#FFCFCF" stroke="none" />
    <path d="M162.25 158.635C162.25 159.705 161.815 160.675 161.115 161.375C160.415 162.075 159.445 162.51 158.375 162.51L150.875 162.51C153.015 162.51 154.75 160.775 154.75 158.635C154.75 156.49 153.015 154.76 150.875 154.76L158.375 154.76C160.515 154.76 162.25 156.49 162.25 158.635L162.25 158.635Z" id="Shape" fill="#307FED" stroke="none" />
    <path d="M84.4915 58.984C84.6525 58.828 88.4895 55.2065 93.554 59.1295C95.647 60.75 98.0865 57.581 96.0035 55.9675C89.7815 51.147 83.9305 53.955 81.7065 56.113C80.914 56.882 80.8945 58.148 81.6635 58.941C82.432 59.733 83.6985 59.753 84.4915 58.984L84.4915 58.984ZM85.158 65.0829C84.843 63.1408 86.1621 61.311 88.1042 60.996C90.0463 60.681 91.8761 62 92.1911 63.9421C92.5061 65.8843 91.1871 67.714 89.245 68.0291C87.3028 68.3441 85.4731 67.025 85.158 65.0829ZM108.294 58.984C108.455 58.828 112.292 55.2065 117.356 59.1295C118.233 59.8085 119.489 59.6425 120.162 58.7735C120.839 57.9005 120.679 56.644 119.806 55.9675C113.584 51.147 107.733 53.955 105.509 56.113C104.716 56.882 104.697 58.148 105.466 58.941C106.234 59.733 107.501 59.753 108.294 58.984L108.294 58.984ZM108.913 64.513C108.913 62.5455 110.508 60.9505 112.476 60.9505C114.443 60.9505 116.038 62.5455 116.038 64.513C116.038 66.4805 114.443 68.0755 112.476 68.0755C110.508 68.0755 108.913 66.4805 108.913 64.513ZM92.1475 111.241C95.7555 111.241 98.944 109.428 100.863 106.669C102.782 109.428 105.971 111.241 109.578 111.241C115.432 111.241 120.194 106.479 120.194 100.625C120.194 99.521 119.299 98.6255 118.194 98.6255C117.09 98.6255 116.194 99.521 116.194 100.625C116.194 104.273 113.226 107.241 109.578 107.241C106.473 107.241 103.868 105.087 103.16 102.197C109.476 101.859 114.51 96.615 114.51 90.2155L114.51 88.526C114.51 84.666 111.37 81.526 107.51 81.526L95.491 81.526C91.631 81.526 88.491 84.666 88.491 88.526L88.491 90.2155C88.491 96.189 92.8785 101.155 98.5995 102.065C97.94 105.022 95.2995 107.241 92.1465 107.241C88.4985 107.241 85.531 104.273 85.531 100.625C85.531 99.521 84.6355 98.6255 83.531 98.6255C82.4265 98.6255 81.531 99.521 81.531 100.625C81.5315 106.479 86.294 111.241 92.1475 111.241L92.1475 111.241ZM92.4915 90.2155L92.4915 88.526C92.4915 86.8715 93.837 85.526 95.4915 85.526L107.511 85.526C109.166 85.526 110.511 86.8715 110.511 88.526L110.511 90.2155C110.511 94.6265 106.922 98.2155 102.511 98.2155L100.492 98.2155C96.0805 98.2155 92.4915 94.6265 92.4915 90.2155L92.4915 90.2155ZM158.375 152.758L136.004 152.758C135.689 135.72 126.179 125.239 123.486 122.609L123.486 120.733C123.486 120.43 123.455 120.135 123.398 119.85C129.568 118.416 134.738 113.03 134.738 105.005C134.738 99.0635 133.197 93.4775 130.5 88.6165L130.5 77.385L136.091 89.481C138.511 94.71 146.232 94.141 147.865 88.62L155.64 62.381C156.951 58.9935 155.16 55.1965 151.721 54.049L118.168 40.335L118.191 40.293C114.749 38.3675 110.699 37.2445 106.63 37.2445L95.385 37.2445C91.929 37.2445 88.469 38.0955 85.072 39.761C85.06 39.7655 85.0475 39.768 85.036 39.7725L50.279 53.979C46.8345 55.1285 45.051 58.929 46.36 62.311L54.1355 88.5495C55.7655 94.061 63.491 94.652 65.9095 89.4105L71.5 77.3145L71.5 88.0605C68.23 93.7 66.942 99.418 66.942 105.575C66.942 112.522 71.8015 118.351 78.2985 119.853C78.242 120.137 78.211 120.431 78.211 120.732L78.211 122.6C76.729 124.053 73.1175 127.96 70.139 134.103L70.139 125.422C70.139 123.828 69.2525 122.395 67.825 121.684C63.5315 119.547 62.0615 125.091 57.679 125.091L52.82 125.091C48.398 125.091 43.8335 128.352 43.8335 134.802C40.946 135.665 38.8335 138.342 38.8335 141.507L38.8335 154.757C38.8335 154.848 38.8485 154.935 38.8605 155.023C38.0805 156.02 37.611 157.271 37.611 158.632C37.611 161.872 40.2465 164.507 43.486 164.507L158.375 164.507C161.615 164.507 164.25 161.872 164.25 158.632C164.25 155.393 161.615 152.758 158.375 152.758L158.375 152.758ZM150.275 57.7795C150.324 57.7995 150.374 57.818 150.424 57.834C151.739 58.252 152.414 59.6975 151.895 60.9745C151.87 61.035 151.848 61.097 151.83 61.16L144.029 87.4845C143.439 89.474 140.599 89.6915 139.721 87.8025L130.5 67.851L130.5 67.7445L130.451 67.7445L120.155 45.4685L150.275 57.7795L150.275 57.7795ZM87.3055 43.1175C89.9885 41.875 92.7005 41.244 95.385 41.244L106.63 41.244C109.317 41.244 112.041 41.8375 114.593 42.9665L126.5 68.7305L126.5 82.8925C113.077 67.3375 89.1585 67.1455 75.5 82.523L75.5 68.744L75.461 68.744L87.3055 43.1175L87.3055 43.1175ZM62.278 87.7335C61.4175 89.5995 58.569 89.4225 57.9705 87.413C57.927 87.2665 50.1625 61.045 50.105 60.903C49.584 59.623 50.2655 58.18 51.5755 57.763C51.6915 57.726 81.7325 45.4435 81.845 45.3975L62.278 87.7335L62.278 87.7335ZM70.942 105.005C70.942 88.5195 84.354 75.1075 100.84 75.1075C116.564 75.1075 130.738 87.542 130.738 105.575C130.738 111.451 125.957 116.232 120.08 116.232C116.734 116.232 85.5455 116.232 81.6 116.232C76.147 116.232 70.942 112.068 70.942 105.005L70.942 105.005ZM119.485 120.732L119.485 123.41C119.485 123.686 119.261 123.91 118.985 123.91L82.711 123.91C82.4355 123.91 82.211 123.686 82.211 123.41L82.211 120.732C82.211 120.457 82.4355 120.232 82.711 120.232L118.985 120.232C119.261 120.232 119.485 120.457 119.485 120.732L119.485 120.732ZM79.7525 126.793C80.5445 127.486 81.578 127.911 82.711 127.911L118.985 127.911C120.116 127.911 121.147 127.489 121.938 126.798C125.166 130.431 131.723 139.422 132.004 152.758L77.8625 152.758L77.8625 141.508C77.8625 138.787 76.299 136.43 74.026 135.272C76.0025 131.359 78.2415 128.492 79.7525 126.793L79.7525 126.793ZM52.82 129.091C61.167 129.091 60.554 129.284 65.8575 125.282C65.974 125.193 66.1395 125.273 66.1395 125.423L66.1395 134.508L47.8335 134.508C47.8335 130.878 50.387 129.091 52.82 129.091L52.82 129.091ZM42.8335 141.508C42.8335 139.853 44.179 138.508 45.8335 138.508L48.0255 138.508L48.0255 148.883C48.0255 149.987 48.921 150.883 50.0255 150.883C51.13 150.883 52.0255 149.987 52.0255 148.883L52.0255 138.508L56.348 138.508L56.348 148.883C56.348 149.987 57.2435 150.883 58.348 150.883C59.4525 150.883 60.348 149.987 60.348 148.883L60.348 138.508L64.6705 138.508L64.6705 148.883C64.6705 149.987 65.566 150.883 66.6705 150.883C67.775 150.883 68.6705 149.987 68.6705 148.883L68.6705 138.508L70.8625 138.508C72.517 138.508 73.8625 139.853 73.8625 141.508L73.8625 152.758C66.016 152.758 59.9595 152.758 42.8335 152.758L42.8335 141.508L42.8335 141.508ZM158.375 160.508L43.4855 160.508C42.4515 160.508 41.6105 159.667 41.6105 158.633C41.6105 157.599 42.4515 156.758 43.4855 156.758C45.056 156.758 152.721 156.758 158.375 156.758C159.409 156.758 160.25 157.599 160.25 158.633C160.25 159.667 159.409 160.508 158.375 160.508L158.375 160.508ZM120.901 146.598C120.923 147.009 120.934 147.428 120.934 147.846C120.934 148.95 121.829 149.846 122.934 149.846C124.038 149.846 124.934 148.95 124.934 147.846C124.934 147.359 124.921 146.868 124.896 146.387C124.838 145.284 123.898 144.439 122.793 144.495C121.69 144.553 120.843 145.495 120.901 146.598L120.901 146.598ZM119.47 139.936C119.783 140.718 120.534 141.195 121.328 141.195C121.575 141.195 121.826 141.148 122.069 141.052C123.094 140.642 123.594 139.479 123.185 138.453C121.476 134.174 119.09 131.925 118.99 131.832C118.184 131.083 116.929 131.129 116.175 131.931C115.422 132.732 115.461 133.996 116.258 134.754C116.277 134.771 118.116 136.544 119.47 139.936L119.47 139.936Z" id="Group" fill="#5F266D" fill-rule="evenodd" stroke="none" />
  </g>
</svg>