<?xml version="1.0" encoding="utf-8"?>
<svg width="200px" height="200px" viewBox="0 0 200 200" version="1.1" xmlns:xlink="http://www.w3.org/1999/xlink" xmlns="http://www.w3.org/2000/svg">
  <g id="dog-bath">
    <path d="M0 100C0 44.7715 44.7715 0 100 0C155.228 0 200 44.7715 200 100C200 155.228 155.228 200 100 200C44.7715 200 0 155.228 0 100Z" id="Background" fill="#FFFFFF" fill-rule="evenodd" stroke="none" />
    <path d="M142.65 96.7132C142.65 92.8519 145.78 89.7217 149.641 89.7217C153.502 89.7217 156.633 92.8519 156.633 96.7132C156.633 100.574 153.502 103.705 149.641 103.705C145.78 103.705 142.65 100.574 142.65 96.7132Z" id="XMLID_64_" fill="#5FCDFF" fill-rule="evenodd" stroke="none" />
    <path d="M153.418 102.599C152.331 103.303 151.033 103.706 149.639 103.706C145.78 103.706 142.65 100.576 142.65 96.7116C142.65 92.8524 145.78 89.7227 149.639 89.7227C151.033 89.7227 152.331 90.1303 153.418 90.8297C151.481 92.0674 150.198 94.2411 150.198 96.7116C150.198 99.1872 151.481 101.361 153.418 102.599L153.418 102.599Z" id="XMLID_61_" fill="#73D7F9" stroke="none" />
    <path d="M118.703 155.83L82.0967 155.83C68.2024 155.83 56.9387 144.566 56.9387 130.672L56.9387 114.133L143.861 114.133L143.861 130.672C143.861 144.566 132.597 155.83 118.703 155.83L118.703 155.83Z" id="XMLID_60_" fill="#FFE2E2" stroke="none" />
    <path d="M121.125 73.3901L121.125 105.336L78.6934 105.336L78.6934 73.3901C78.6934 66.859 81.7979 61.0576 86.6131 57.3795C89.9994 54.7932 94.236 53.2535 98.8299 53.2535L100.983 53.2535C105.582 53.2535 109.814 54.7932 113.205 57.3845C118.02 61.0626 121.125 66.859 121.125 73.3901L121.125 73.3901Z" id="XMLID_585_" fill="#B76C6C" stroke="none" />
    <path d="M38.3931 79.2932C38.3931 75.4319 41.5233 72.3017 45.3845 72.3017C49.2458 72.3017 52.376 75.4319 52.376 79.2932C52.376 83.1544 49.2458 86.2846 45.3845 86.2846C41.5233 86.2846 38.3931 83.1544 38.3931 79.2932Z" id="XMLID_57_" fill="#5FCDFF" fill-rule="evenodd" stroke="none" />
    <path d="M41.7955 50.9682C41.7955 43.8112 47.5974 38.0092 54.7544 38.0092C61.9115 38.0092 67.7134 43.8112 67.7134 50.9682C67.7134 58.1252 61.9115 63.9271 54.7544 63.9271C47.5974 63.9271 41.7955 58.1252 41.7955 50.9682Z" id="XMLID_86_" fill="#5FCDFF" fill-rule="evenodd" stroke="none" />
    <path d="M131.465 54.8309C131.465 50.9697 134.596 47.8395 138.457 47.8395C142.318 47.8395 145.448 50.9697 145.448 54.8309C145.448 58.6922 142.318 61.8224 138.457 61.8224C134.596 61.8224 131.465 58.6922 131.465 54.8309Z" id="XMLID_56_" fill="#5FCDFF" fill-rule="evenodd" stroke="none" />
    <path d="M148.42 67.7048C148.42 63.8436 151.55 60.7134 155.411 60.7134C159.272 60.7134 162.402 63.8436 162.402 67.7048C162.402 71.5661 159.272 74.6963 155.411 74.6963C151.55 74.6963 148.42 71.5661 148.42 67.7048Z" id="XMLID_55_" fill="#5FCDFF" fill-rule="evenodd" stroke="none" />
    <path d="M46.0633 97.6103C46.0633 93.749 49.1935 90.6189 53.0548 90.6189C56.916 90.6189 60.0462 93.749 60.0462 97.6103C60.0462 101.472 56.916 104.602 53.0548 104.602C49.1935 104.602 46.0633 101.472 46.0633 97.6103Z" id="XMLID_54_" fill="#5FCDFF" fill-rule="evenodd" stroke="none" />
    <path d="M121.251 48.1565C121.251 52.4988 117.94 56.0712 113.703 56.4788C113.437 56.504 113.165 56.5191 112.888 56.5191C111.55 56.5191 110.287 56.2021 109.165 55.6385C108.048 59.4273 104.551 62.1897 100.4 62.1897C96.2487 62.1897 92.7517 59.4273 91.6347 55.6385C90.5126 56.2021 89.2497 56.5191 87.9113 56.5191C87.6346 56.5191 87.3628 56.504 87.0962 56.4788C82.8595 56.0712 79.5487 52.4988 79.5487 48.1565C79.5487 43.8193 82.8595 40.2468 87.0962 39.8392C87.3628 39.8141 87.6346 39.799 87.9113 39.799C89.9642 39.799 91.846 40.5437 93.3002 41.7714C94.7744 39.4015 97.4009 37.8115 100.4 37.8115C103.399 37.8115 106.025 39.4015 107.499 41.7714C108.954 40.5437 110.835 39.799 112.888 39.799C113.165 39.799 113.437 39.8141 113.703 39.8392C117.94 40.2468 121.251 43.8193 121.251 48.1565L121.251 48.1565Z" id="XMLID_438_" fill="#5FCDFF" stroke="none" />
    <path d="M58.5266 63.3671C57.3341 63.7294 56.0662 63.9256 54.7529 63.9256C47.598 63.9256 41.7965 58.1241 41.7965 50.9692C41.7965 43.8092 47.598 38.0077 54.7529 38.0077C56.0662 38.0077 57.3341 38.204 58.5266 38.5662C53.2132 40.1814 49.3439 45.1224 49.3439 50.9692C49.3439 56.8109 53.2132 61.7519 58.5266 63.3671L58.5266 63.3671Z" id="XMLID_53_" fill="#73D7F9" stroke="none" />
    <path d="M86.6131 57.3795C86.3666 59.055 86.2408 60.7808 86.2408 62.552L86.2408 105.336L78.6934 105.336L78.6934 73.3901C78.6934 66.859 81.7979 61.0576 86.6131 57.3795L86.6131 57.3795Z" id="XMLID_581_" fill="#C98585" stroke="none" />
    <path d="M121.125 73.3901L121.125 105.336L113.578 105.336L113.578 62.552C113.578 60.7859 113.452 59.055 113.205 57.3845C118.021 61.0626 121.125 66.859 121.125 73.3901L121.125 73.3901Z" id="XMLID_582_" fill="#965959" stroke="none" />
    <path d="M115.75 114.134L85.0493 114.134C79.9256 114.134 75.7725 109.98 75.7725 104.857L75.7725 102.671C75.7725 89.76 86.2388 79.2937 99.1499 79.2937L101.65 79.2937C114.561 79.2937 125.027 89.76 125.027 102.671L125.027 104.857C125.027 109.98 120.874 114.134 115.75 114.134L115.75 114.134Z" id="XMLID_146_" fill="#FFBB98" stroke="none" />
    <path d="M125.03 102.669L125.03 104.858C125.03 109.98 120.873 114.131 115.751 114.131L108.204 114.131C113.326 114.131 117.482 109.98 117.482 104.858L117.482 102.669C117.482 90.6133 108.35 80.6859 96.6261 79.428C97.4563 79.3374 98.2965 79.2922 99.1519 79.2922L101.648 79.2922C114.559 79.2922 125.03 89.7579 125.03 102.669L125.03 102.669Z" id="XMLID_614_" fill="#FFAA80" stroke="none" />
    <path d="M92.6023 114.132L85.0548 114.132C79.9326 114.132 75.7765 109.981 75.7765 104.858L75.7765 102.67C75.7765 89.7584 86.2473 79.2927 99.1585 79.2927L101.654 79.2927C102.51 79.2927 103.35 79.3379 104.18 79.4285C92.4563 80.6864 83.324 90.6138 83.324 102.67L83.324 104.858C83.324 109.981 87.4801 114.132 92.6023 114.132L92.6023 114.132Z" id="XMLID_607_" fill="#FFCAA6" stroke="none" />
    <path d="M108.918 91.3731L108.918 92.153C108.918 95.4185 106.981 98.2262 104.194 99.4992C103.177 99.9671 102.045 100.224 100.853 100.224L99.9872 100.224C95.5292 100.224 91.9215 96.611 91.9215 92.153L91.9215 91.3731C91.9215 89.1441 93.7228 87.3377 95.9518 87.3377L104.883 87.3377C107.112 87.3377 108.918 89.1441 108.918 91.3731L108.918 91.3731Z" id="Shape" fill="#B76C6C" stroke="none" />
    <path d="M58.7958 72.3435L64.8187 92.6677C64.8695 92.8393 64.9264 93.0109 65.0059 93.1714C66.1334 95.4371 69.3069 95.6756 70.7605 93.6061C70.8662 93.4557 70.9492 93.2896 71.0267 93.1226L87.7795 56.8758L60.8935 67.8659C59.0228 68.4616 58.0562 70.5251 58.7958 72.3435L58.7958 72.3435Z" id="XMLID_149_" fill="#B76C6C" stroke="none" />
    <path d="M142.019 72.7309L135.996 93.0552C135.945 93.2267 135.888 93.3983 135.809 93.5588C134.681 95.8251 131.508 96.0631 130.054 93.9936C129.948 93.8431 129.865 93.6776 129.787 93.5105L113.035 57.2642L139.921 68.2533C141.792 68.849 142.759 70.9125 142.019 72.7309L142.019 72.7309Z" id="XMLID_52_" fill="#B76C6C" stroke="none" />
    <path d="M106.795 57.3795C107.379 57.3795 107.957 57.3342 108.516 57.2486C106.996 60.1871 103.937 62.1897 100.4 62.1897C96.2487 62.1897 92.7517 59.4273 91.6347 55.6385C90.5126 56.2021 89.2497 56.5191 87.9113 56.5191C87.6346 56.5191 87.3628 56.504 87.0962 56.4788C82.8595 56.0712 79.5487 52.4988 79.5487 48.1565C79.5487 46.1388 80.2632 44.2822 81.4608 42.8381C83.2138 49.1779 90.3295 52.1587 95.987 49.2987C97.3607 53.9731 101.673 57.3795 106.795 57.3795L106.795 57.3795Z" id="XMLID_50_" fill="#73D7F9" stroke="none" />
    <path d="M49.1628 85.1792C48.076 85.8836 46.7778 86.2861 45.384 86.2861C41.5248 86.2861 38.3951 83.1564 38.3951 79.2922C38.3951 75.4329 41.5248 72.3032 45.384 72.3032C46.7778 72.3032 48.076 72.7108 49.1628 73.4102C47.2256 74.648 45.9426 76.8216 45.9426 79.2922C45.9426 81.7677 47.2256 83.9414 49.1628 85.1792L49.1628 85.1792Z" id="XMLID_49_" fill="#73D7F9" stroke="none" />
    <path d="M56.831 103.494C55.7442 104.199 54.446 104.601 53.0522 104.601C49.193 104.601 46.0633 101.472 46.0633 97.6123C46.0633 93.748 49.193 90.6183 53.0522 90.6183C54.446 90.6183 55.7442 91.0259 56.831 91.7253C54.8938 92.9631 53.6107 95.1367 53.6107 97.6123C53.6108 100.083 54.8938 102.256 56.831 103.494L56.831 103.494Z" id="XMLID_48_" fill="#73D7F9" stroke="none" />
    <path d="M142.228 60.7154C140.623 61.7469 138.605 62.1193 136.617 61.5758C132.889 60.5594 130.695 56.7153 131.712 52.9919C132.728 49.2635 136.572 47.0697 140.295 48.0861C141 48.2773 141.649 48.5741 142.233 48.9465C140.824 49.8471 139.737 51.251 139.259 52.9919C138.434 56.0109 139.722 59.1103 142.228 60.7154L142.228 60.7154Z" id="XMLID_47_" fill="#73D7F9" stroke="none" />
    <path d="M159.179 73.5913C157.574 74.6228 155.556 74.9952 153.569 74.4517C149.845 73.4303 147.652 69.5912 148.668 65.8628C149.684 62.1394 153.529 59.9456 157.252 60.962C157.956 61.1532 158.6 61.445 159.184 61.8224C157.78 62.723 156.688 64.1269 156.216 65.8628C155.39 68.8868 156.678 71.9812 159.179 73.5913L159.179 73.5913Z" id="XMLID_42_" fill="#73D7F9" stroke="none" />
    <path d="M104.194 99.4991C103.177 99.9671 102.045 100.224 100.853 100.224L99.9872 100.224C95.5292 100.224 91.9215 96.611 91.9215 92.153L91.9215 91.3731C91.9215 89.1441 93.7228 87.3377 95.9518 87.3377L103.499 87.3377C101.27 87.3377 99.4689 89.1441 99.4689 91.3731L99.4689 92.153C99.4689 95.4185 101.406 98.2312 104.194 99.4991L104.194 99.4991Z" id="Shape" fill="#C98585" stroke="none" />
    <path d="M89.6422 155.828L82.0947 155.828C68.2024 155.828 56.9366 144.567 56.9366 130.67L56.9366 114.131L64.4841 114.131L64.4841 130.67C64.4841 144.567 75.7499 155.828 89.6422 155.828L89.6422 155.828Z" id="XMLID_720_" fill="#FFEFEE" stroke="none" />
    <path d="M143.863 114.131L143.863 130.67C143.863 144.567 132.597 155.828 118.705 155.828L111.157 155.828C125.05 155.828 136.315 144.567 136.315 130.67L136.315 114.131L143.863 114.131L143.863 114.131Z" id="XMLID_747_" fill="#FFCFCF" stroke="none" />
    <path d="M152.562 116.366L152.562 120.469C152.562 121.702 151.562 122.701 150.329 122.701L50.4705 122.701C49.2373 122.701 48.238 121.702 48.238 120.469L48.238 116.366C48.238 115.133 49.2378 114.134 50.4705 114.134L150.329 114.134C151.562 114.134 152.562 115.133 152.562 116.366L152.562 116.366Z" id="XMLID_158_" fill="#FFE2E2" stroke="none" />
    <path d="M152.563 116.365L152.563 120.471C152.563 121.704 151.561 122.7 150.329 122.7L142.781 122.7C144.014 122.7 145.015 121.704 145.015 120.471L145.015 116.365C145.015 115.132 144.014 114.131 142.781 114.131L150.329 114.131C151.561 114.131 152.563 115.132 152.563 116.365L152.563 116.365Z" id="XMLID_665_" fill="#FFCFCF" stroke="none" />
    <path d="M58.0184 122.7L50.471 122.7C49.2383 122.7 48.237 121.704 48.237 120.471L48.237 116.365C48.237 115.132 49.2383 114.131 50.471 114.131L58.0184 114.131C56.7857 114.131 55.7844 115.132 55.7844 116.365L55.7844 120.471C55.7844 121.704 56.7857 122.7 58.0184 122.7L58.0184 122.7Z" id="XMLID_664_" fill="#FFEFEE" stroke="none" />
    <path d="M68.0963 122.699L60.0457 122.699C57.2667 122.699 55.0141 120.446 55.0141 117.667L55.0141 115.028C55.0141 110.86 58.3933 107.481 62.5615 107.481L65.5805 107.481C69.7487 107.481 73.1279 110.86 73.1279 115.028L73.1279 117.667C73.1279 120.446 70.8752 122.699 68.0963 122.699L68.0963 122.699Z" id="XMLID_39_" fill="#B76C6C" stroke="none" />
    <path d="M140.754 122.699L132.703 122.699C129.924 122.699 127.672 120.446 127.672 117.667L127.672 115.028C127.672 110.86 131.051 107.481 135.219 107.481L138.238 107.481C142.406 107.481 145.785 110.86 145.785 115.028L145.785 117.667C145.785 120.446 143.532 122.699 140.754 122.699L140.754 122.699Z" id="XMLID_38_" fill="#B76C6C" stroke="none" />
    <path d="M133.667 146.087C133.667 138.93 139.469 133.128 146.626 133.128C153.783 133.128 159.585 138.93 159.585 146.087C159.585 153.244 153.783 159.046 146.626 159.046C139.469 159.046 133.667 153.244 133.667 146.087Z" id="XMLID_37_" fill="#5FCDFF" fill-rule="evenodd" stroke="none" />
    <path d="M150.399 158.49C149.206 158.852 147.939 159.048 146.625 159.048C139.47 159.048 133.669 153.242 133.669 146.087C133.669 138.932 139.47 133.13 146.625 133.13C147.939 133.13 149.206 133.327 150.399 133.689C145.086 135.304 141.216 140.245 141.216 146.087C141.216 151.929 145.086 156.875 150.399 158.49L150.399 158.49Z" id="XMLID_36_" fill="#73D7F9" stroke="none" />
    <path d="M67.5911 122.7L60.0437 122.7C57.2662 122.7 55.012 120.446 55.012 117.669L55.012 115.027C55.012 110.861 58.3933 107.48 62.5595 107.48L65.5784 107.48C66.3684 107.48 67.1282 107.601 67.8427 107.827C64.7834 108.788 62.5595 111.651 62.5595 115.027L62.5595 117.669C62.5595 120.446 64.8136 122.7 67.5911 122.7L67.5911 122.7Z" id="Shape" fill="#C98585" stroke="none" />
    <path d="M140.253 122.7L132.705 122.7C129.923 122.7 127.674 120.446 127.674 117.669L127.674 115.027C127.674 110.861 131.05 107.48 135.221 107.48L138.24 107.48C139.03 107.48 139.79 107.601 140.504 107.827C137.44 108.788 135.221 111.651 135.221 115.027L135.221 117.669C135.221 120.446 137.47 122.7 140.253 122.7L140.253 122.7Z" id="Shape" fill="#C98585" stroke="none" />
    <path d="M90.5207 70.0123C89.0011 70.0123 87.7684 71.2451 87.7684 72.7646C87.7684 74.2792 89.0011 75.5119 90.5207 75.5119C92.0352 75.5119 93.268 74.2792 93.268 72.7646C93.268 71.2451 92.0352 70.0123 90.5207 70.0123L90.5207 70.0123ZM108.896 75.5119C110.416 75.5119 111.643 74.2792 111.643 72.7646C111.643 71.2451 110.416 70.0123 108.896 70.0123C107.377 70.0123 106.144 71.2451 106.144 72.7646C106.144 74.2792 107.377 75.5119 108.896 75.5119L108.896 75.5119ZM99.9298 106.094C105.045 112.41 115.322 108.79 115.322 100.645C115.322 97.9856 111.296 97.9816 111.296 100.645C111.296 105.796 104.046 107.08 102.3 102.235C107.008 101.56 110.934 97.7622 110.934 91.4772C110.934 88.1413 108.222 85.4292 104.886 85.4292L95.9548 85.4292C92.6239 85.4292 89.9119 88.1413 89.9119 91.4772C89.9119 97.3089 93.2488 101.003 97.6253 102.059C95.9468 107.251 88.5634 105.787 88.5634 100.645C88.5634 97.9877 84.5381 97.9811 84.5381 100.645C84.5381 108.691 94.7503 112.488 99.9298 106.094L99.9298 106.094ZM93.9372 91.4772C93.9372 90.3602 94.8428 89.4545 95.9548 89.4545L104.886 89.4545C106.003 89.4545 106.909 90.3602 106.909 91.4772C106.909 100.692 93.9372 100.664 93.9372 91.4772L93.9372 91.4772ZM54.3937 79.3963C54.3937 74.4352 50.3533 70.3948 45.3871 70.3948C40.4209 70.3948 36.3855 74.4352 36.3855 79.3963C36.3855 84.3625 40.4209 88.4029 45.3871 88.4029C50.3533 88.4029 54.3937 84.3625 54.3937 79.3963L54.3937 79.3963ZM40.4108 79.3963C40.4108 76.6541 42.6448 74.4201 45.3871 74.4201C48.1343 74.4201 50.3684 76.6541 50.3684 79.3963C50.3684 82.1436 48.1343 84.3776 45.3871 84.3776C42.6448 84.3776 40.4108 82.1436 40.4108 79.3963L40.4108 79.3963ZM54.7559 66.0424C63.0128 66.0424 69.73 59.3302 69.73 51.0733C69.73 42.8164 63.0128 36.0992 54.7559 36.0992C46.5041 36.0992 39.7869 42.8164 39.7869 51.0733C39.7869 59.3302 46.5041 66.0424 54.7559 66.0424L54.7559 66.0424ZM54.7559 40.1245C60.7939 40.1245 65.7047 45.0354 65.7047 51.0733C65.7047 57.1062 60.7939 62.0171 54.7559 62.0171C48.723 62.0171 43.8122 57.1062 43.8122 51.0733C43.8122 45.0354 48.723 40.1245 54.7559 40.1245L54.7559 40.1245ZM58.9105 53.8327C58.7611 53.9469 57.9168 54.8335 57.8333 54.9371C56.2684 56.8828 58.9578 59.3197 60.7531 57.6894C61.0852 57.3875 61.4022 57.0554 61.684 56.7082C63.1859 54.8747 60.7944 52.3951 58.9105 53.8327L58.9105 53.8327ZM54.7559 46.1625C56.7032 46.1625 58.4844 47.3248 59.2643 49.1311C60.3199 51.583 64.0257 49.9895 62.9575 47.526C61.5386 44.2555 58.3183 42.1372 54.7559 42.1372C52.0962 42.1372 52.0927 46.1625 54.7559 46.1625L54.7559 46.1625ZM145.874 131.242C145.882 130.987 145.879 125.072 145.879 124.817L150.332 124.817C152.671 124.817 154.578 122.915 154.578 120.575L154.578 116.469C154.578 114.13 152.671 112.223 150.332 112.223L147.343 112.223C146.115 108.368 142.497 105.571 138.241 105.571L135.222 105.571C130.965 105.571 127.347 108.368 126.119 112.223L124.389 112.223C129.08 106.661 127.081 95.502 123.141 89.2583L123.141 84.5286C128.231 95.5423 128.056 95.256 128.409 95.7591C130.746 99.08 135.81 98.6951 137.617 95.0597C137.866 94.5445 137.438 95.891 143.926 73.9924C145.031 71.1233 143.487 67.9288 140.621 66.9733L117.53 57.5339C127.278 52.6603 123.792 37.8905 112.891 37.8905C111.155 37.8905 109.45 38.3282 107.935 39.1534C103.863 34.8162 96.939 34.8207 92.8705 39.1534C91.3559 38.3282 89.6502 37.8905 87.9143 37.8905C77.4651 37.8905 73.5752 51.7174 82.5607 57.1415L60.1851 66.2889C57.318 67.2445 55.7743 70.439 56.8793 73.3081C63.3394 95.1111 62.9384 93.8773 63.194 94.3805C64.9897 98.0038 70.0566 98.3997 72.3968 95.0748C72.744 94.5717 72.6142 94.7679 76.6837 85.9626L76.6837 90.959C73.5229 96.9315 72.0456 107.041 76.4171 112.223L74.6862 112.223C73.4585 108.368 69.8407 105.571 65.584 105.571L62.565 105.571C58.3083 105.571 54.6905 108.368 53.4628 112.223L50.474 112.223C48.1343 112.223 46.2273 114.13 46.2273 116.469L46.2273 120.575C46.2273 122.915 48.1343 124.817 50.474 124.817L54.927 124.817L54.927 130.774C54.927 143.117 63.194 153.557 74.4849 156.858L71.6672 159.676C69.3758 161.979 72.8481 165.444 75.1441 163.148L80.4021 157.89C81.74 157.974 118.953 157.981 120.403 157.89L125.662 163.148C127.958 165.445 131.429 161.978 129.138 159.676L126.321 156.858C128.922 156.098 131.362 154.956 133.576 153.502C136.132 158.071 141.028 161.165 146.628 161.165C154.885 161.165 161.602 154.448 161.602 146.191C161.602 137.484 154.178 130.744 145.874 131.242L145.874 131.242ZM147.801 116.248L150.332 116.248C150.452 116.248 150.553 116.349 150.553 116.469L150.553 120.575C150.553 120.696 150.452 120.791 150.332 120.791L147.121 120.791C147.903 119.156 147.801 117.931 147.801 116.248L147.801 116.248ZM50.474 120.791C50.3533 120.791 50.2526 120.696 50.2526 120.575L50.2526 116.469C50.2526 116.349 50.3533 116.248 50.474 116.248L53.0049 116.248C53.0049 117.88 52.8932 119.137 53.6842 120.791L50.474 120.791L50.474 120.791ZM129.762 114.235C130.176 111.624 132.462 109.596 135.222 109.596L138.241 109.596C141 109.596 143.286 111.623 143.7 114.235C143.792 114.773 143.775 114.78 143.775 117.772C143.775 118.905 143.151 119.891 142.231 120.409C142.231 118.1 142.231 117.524 142.231 115.196C142.231 112.521 138.205 112.553 138.205 115.196C138.205 117.182 138.205 118.808 138.205 120.791L135.257 120.791C135.257 118.803 135.257 117.2 135.257 115.196C135.257 112.507 131.232 112.564 131.232 115.196C131.232 117.525 131.232 118.1 131.232 120.409C130.311 119.891 129.687 118.905 129.687 117.772C129.687 114.862 129.665 114.799 129.762 114.235L129.762 114.235ZM139.312 70.7772C140.059 71.0131 140.458 71.8464 140.158 72.5785C140.105 72.7053 134.028 93.2298 134.009 93.2685C133.562 94.1702 132.282 94.2663 131.704 93.4446C131.689 93.429 117.021 61.69 117.012 61.6699C117.091 61.7021 139.231 70.7525 139.312 70.7772L139.312 70.7772ZM96.463 65.7959C92.5686 62.7769 88.8401 63.4461 86.5004 64.7241L89.3634 58.5302C89.7509 58.4799 90.1383 58.4044 90.5157 58.3038C94.702 66.2879 106.104 66.2869 110.29 58.3038C110.562 58.3742 110.838 58.4346 111.12 58.4849C111.176 58.664 114.221 65.2278 114.3 65.3984C109.445 62.0423 104.941 64.2411 103.19 65.9418C101.314 67.7587 104.03 70.6478 105.978 68.845C106.451 68.4073 108.982 66.3493 112.378 68.9758C113.451 69.8141 115.064 69.3582 115.518 68.0299L119.115 75.8188L119.115 84.3625C108.981 74.7431 90.6877 74.7909 80.709 85.3437L80.709 77.2528L84.679 68.6639C85.2279 69.4327 86.6514 69.725 87.6023 68.845C88.0753 68.4073 90.6062 66.3493 93.9975 68.9758C96.0736 70.597 98.605 67.4482 96.463 65.7959L96.463 65.7959ZM119.115 90.4759C123.898 97.2339 123.327 105.413 122.577 107.453C121.561 110.235 118.884 112.223 115.754 112.223L85.0513 112.223C81.9216 112.223 79.2448 110.235 78.2284 107.453C77.3102 104.955 77.3323 97.7512 80.709 91.9955C88.975 77.9044 110.348 78.076 119.115 90.4759L119.115 90.4759ZM87.9143 41.9158C89.4087 41.9158 90.8578 42.4491 92.005 43.4152C92.9701 44.2283 94.384 43.9541 95.0139 42.9422C97.5126 38.9205 103.297 38.9275 105.792 42.9422C106.43 43.9682 107.847 44.2193 108.801 43.4152C109.943 42.4491 111.397 41.9158 112.891 41.9158C121.281 41.9158 121.287 54.6106 112.891 54.6106C111.929 54.6106 110.973 54.3962 110.069 53.9414C108.956 53.3849 107.59 53.966 107.241 55.1741C105.195 61.9904 95.5911 61.926 93.5648 55.1741C93.2146 53.9635 91.847 53.3864 90.737 53.9414C89.8515 54.3841 88.9005 54.6106 87.9143 54.6106C79.4526 54.6106 79.5669 41.9158 87.9143 41.9158L87.9143 41.9158ZM69.1011 92.7603C68.5189 93.5815 67.2439 93.4833 66.7966 92.5892C66.7498 92.4483 60.6933 72.0024 60.648 71.8942C60.3471 71.1616 60.7471 70.3288 61.4933 70.0928C61.5632 70.0717 83.7255 61.0133 83.7934 60.9856C83.6837 61.2226 69.2178 92.5263 69.1011 92.7603L69.1011 92.7603ZM75.1441 116.248C81.1226 116.248 120.469 116.248 125.662 116.248C125.662 117.88 125.55 119.137 126.341 120.791L74.4648 120.791C75.2462 119.156 75.1441 117.931 75.1441 116.248L75.1441 116.248ZM58.5749 120.409C57.6542 119.891 57.0302 118.905 57.0302 117.772C57.0302 114.862 57.0086 114.799 57.1057 114.235C57.5198 111.624 59.8052 109.596 62.565 109.596L65.584 109.596C68.3559 109.596 70.6332 111.649 71.0433 114.235C71.4207 116.423 71.5037 119.323 69.5741 120.409C69.5741 118.1 69.5741 117.524 69.5741 115.196C69.5741 112.507 65.5488 112.564 65.5488 115.196C65.5488 117.182 65.5488 118.808 65.5488 120.791L62.6002 120.791C62.6002 118.803 62.6002 117.2 62.6002 115.196C62.6002 112.517 58.5749 112.556 58.5749 115.196C58.5749 117.524 58.5749 118.1 58.5749 120.409L58.5749 120.409ZM132.072 149.663C128.147 152.442 123.502 153.92 118.708 153.92L82.0978 153.92C69.411 153.92 58.9523 143.608 58.9523 130.774L58.9523 124.817C64.545 124.817 138.836 124.817 141.818 124.817C141.818 131.247 141.865 131.247 141.818 132.017C134.512 134.496 130.253 142.186 132.072 149.663L132.072 149.663ZM146.628 157.14C140.609 157.14 135.685 152.237 135.685 146.191C135.685 140.147 140.611 135.247 146.628 135.247C152.666 135.247 157.577 140.158 157.577 146.191C157.577 152.229 152.666 157.14 146.628 157.14L146.628 157.14ZM150.748 148.979C150.6 149.096 149.722 150.034 149.65 150.131C148.212 152.088 150.877 154.419 152.626 152.808C152.958 152.506 153.275 152.179 153.557 151.827C155.065 149.984 152.632 147.475 150.748 148.979L150.748 148.979ZM146.628 137.26C143.964 137.26 143.95 141.285 146.628 141.285C148.528 141.285 150.34 142.404 151.137 144.249C152.199 146.717 155.893 145.091 154.83 142.649C153.411 139.373 150.191 137.26 146.628 137.26L146.628 137.26ZM136.087 63.6222C140.878 64.9344 145.835 62.1077 147.147 57.3075C148.454 52.5114 145.632 47.5598 140.832 46.248C136.05 44.9408 131.087 47.753 129.772 52.5627C128.465 57.3442 131.277 62.3074 136.087 63.6222L136.087 63.6222ZM133.657 53.6244C134.384 50.9561 137.152 49.4099 139.77 50.1324C142.442 50.866 143.99 53.6093 143.262 56.2458C142.546 58.891 139.809 60.4684 137.149 59.7378C134.467 59.0017 132.934 56.2559 133.657 53.6244L133.657 53.6244ZM140.641 96.8158C140.641 101.782 144.681 105.822 149.642 105.822C154.608 105.822 158.649 101.782 158.649 96.8158C158.649 91.8546 154.608 87.8142 149.642 87.8142C144.681 87.8142 140.641 91.8546 140.641 96.8158L140.641 96.8158ZM149.642 91.8395C152.389 91.8395 154.624 94.0736 154.624 96.8158C154.624 99.563 152.389 101.797 149.642 101.797C146.9 101.797 144.666 99.563 144.666 96.8158C144.666 94.0736 146.9 91.8395 149.642 91.8395L149.642 91.8395ZM157.783 59.1239C152.98 57.8112 148.041 60.6384 146.729 65.4386C145.414 70.2504 148.251 75.1934 153.044 76.4931C157.852 77.8099 162.795 74.9509 164.098 70.1784C165.411 65.3752 162.583 60.4357 157.783 59.1239L157.783 59.1239ZM160.219 69.1217C159.494 71.7684 156.757 73.3332 154.105 72.6137C151.454 71.8891 149.889 69.1469 150.613 66.5003C151.332 63.8456 154.074 62.2762 156.727 63.0083C159.373 63.7243 160.938 66.461 160.219 69.1217L160.219 69.1217ZM53.0553 106.718C58.0215 106.718 62.0619 102.678 62.0619 97.7165C62.0619 92.7502 58.0215 88.7099 53.0553 88.7099C48.0941 88.7099 44.0537 92.7502 44.0537 97.7165C44.0537 102.678 48.0941 106.718 53.0553 106.718L53.0553 106.718ZM53.0553 92.7351C55.8025 92.7351 58.0366 94.9692 58.0366 97.7164C58.0366 100.459 55.8025 102.693 53.0553 102.693C50.313 102.693 48.079 100.459 48.079 97.7165C48.079 94.9692 50.313 92.7351 53.0553 92.7351L53.0553 92.7351Z" id="Group" fill="#5F266D" fill-rule="evenodd" stroke="none" />
  </g>
</svg>