<?xml version="1.0" standalone="no"?>
<!DOCTYPE svg PUBLIC "-//W3C//DTD SVG 20010904//EN"
 "http://www.w3.org/TR/2001/REC-SVG-20010904/DTD/svg10.dtd">
<svg version="1.0" xmlns="http://www.w3.org/2000/svg"
 width="512.000000pt" height="512.000000pt" viewBox="0 0 512.000000 512.000000"
 preserveAspectRatio="xMidYMid meet">
<metadata>
Created by potrace 1.14, written by Peter Selinger 2001-2017
</metadata>
<g transform="translate(0.000000,512.000000) scale(0.100000,-0.100000)"
fill="#000000" stroke="none">
<path d="M1365 4981 c-23 -10 -49 -30 -58 -44 -31 -48 -50 -154 -49 -282 0
-179 41 -349 129 -537 l46 -98 -17 -82 c-12 -59 -19 -156 -23 -338 l-6 -255
-48 -53 c-55 -60 -121 -188 -144 -277 -21 -80 -21 -242 0 -330 30 -133 134
-297 229 -365 20 -14 36 -31 36 -38 0 -13 -54 -347 -66 -404 -4 -22 -15 -30
-54 -43 -102 -34 -232 -142 -299 -250 -43 -68 -79 -191 -86 -298 -6 -80 -8
-87 -28 -87 -50 -1 -52 -8 -52 -180 0 -171 2 -179 51 -180 24 0 34 -31 34
-110 0 -47 0 -47 -59 -84 -123 -75 -192 -193 -199 -336 -3 -76 -1 -88 20 -119
12 -19 39 -43 59 -53 34 -18 102 -18 1753 -18 1902 0 1760 -5 1808 64 51 70
29 225 -47 341 -37 55 -132 136 -176 150 -13 4 -18 12 -15 22 3 8 6 44 6 79 0
63 0 64 28 64 49 0 52 12 52 180 0 168 -3 180 -52 180 -24 0 -28 4 -28 29 0
15 27 84 59 152 169 356 237 661 248 1111 l6 247 -27 55 c-64 131 -234 144
-313 25 -22 -34 -28 -58 -39 -172 -30 -295 -83 -499 -190 -725 -59 -126 -49
-120 -139 -82 l-40 17 -34 214 -34 214 85 85 c96 97 147 185 178 306 24 94 26
241 5 334 -22 93 -87 218 -150 287 l-53 59 -4 275 c-4 208 -8 287 -20 328
l-16 53 43 92 c89 190 135 381 135 558 0 190 -36 291 -117 324 -43 19 -199 18
-288 -1 -167 -35 -309 -98 -477 -211 l-113 -75 -282 0 -281 -1 -79 56 c-94 66
-261 154 -360 189 -158 57 -368 75 -448 38z m275 -77 c97 -18 198 -53 295
-101 83 -42 195 -112 195 -122 0 -4 -21 -12 -47 -19 -82 -22 -245 -109 -330
-177 -93 -74 -195 -196 -246 -293 l-35 -65 -15 29 c-22 44 -66 170 -88 254
-26 97 -36 321 -19 404 18 88 41 106 133 106 41 0 112 -7 157 -16z m2044 -7
c46 -46 59 -235 30 -408 -16 -95 -55 -225 -94 -313 l-21 -47 -52 87 c-122 206
-346 383 -562 444 l-60 17 70 45 c98 64 201 114 304 148 108 36 171 47 279 49
74 1 85 -1 106 -22z m-759 -306 c313 -83 543 -309 636 -623 19 -63 22 -105 26
-309 l5 -236 -78 39 c-90 44 -189 68 -286 68 l-68 0 20 33 c16 25 20 50 20
120 0 128 -32 177 -115 177 -81 0 -115 -52 -115 -178 0 -57 5 -88 19 -115 l19
-37 -474 0 -475 0 16 30 c11 20 15 59 15 134 0 103 0 105 -31 135 -25 26 -39
31 -76 31 -38 0 -50 -5 -80 -35 l-35 -35 4 -109 c2 -90 6 -113 22 -130 l19
-21 -69 0 c-99 0 -197 -24 -287 -68 l-79 -39 5 241 c3 211 7 250 26 314 83
278 296 502 565 591 134 44 197 50 501 47 237 -3 280 -6 350 -25z m483 -1173
c156 -57 274 -161 342 -303 46 -96 60 -159 60 -268 0 -169 -57 -305 -175 -422
-81 -82 -160 -127 -271 -155 -73 -19 -113 -20 -824 -20 -493 0 -766 4 -806 11
-217 40 -412 228 -465 449 -7 30 -13 98 -12 150 2 225 125 423 326 524 130 66
117 65 977 63 l775 -2 73 -27z m893 -626 c29 -26 33 -35 38 -105 16 -187 -15
-549 -65 -772 -38 -170 -152 -495 -174 -495 -4 0 -10 13 -13 29 -13 66 -73
166 -144 242 l-73 77 49 104 c104 220 170 458 196 703 19 187 19 186 51 218
37 38 92 37 135 -1z m-2661 -590 l75 -27 792 -3 c850 -3 856 -2 971 48 25 11
48 18 51 15 8 -8 159 -944 171 -1059 15 -143 12 -330 -5 -404 -43 -181 -168
-350 -339 -456 l-29 -18 6 23 c11 46 47 306 62 454 27 271 36 426 42 750 5
286 4 321 -10 333 -9 8 -26 12 -39 10 l-23 -3 -11 -375 c-14 -455 -18 -509
-65 -900 -24 -201 -48 -349 -61 -373 -8 -16 -33 -17 -298 -17 -221 0 -289 3
-293 13 -3 6 -2 253 0 547 4 399 3 546 -6 579 -23 83 -96 120 -168 85 -75 -37
-73 -18 -73 -656 l0 -568 -269 0 c-203 0 -271 3 -279 13 -18 23 -72 405 -102
727 -16 174 -30 502 -30 712 0 102 -3 193 -6 202 -7 19 -45 21 -62 4 -9 -9
-12 -77 -12 -248 1 -380 25 -733 76 -1103 14 -104 24 -191 21 -194 -10 -10
-103 61 -174 134 -56 56 -83 95 -118 166 -64 131 -75 184 -75 362 1 183 1 186
97 783 66 405 80 481 93 476 8 -3 49 -18 90 -32z m-270 -454 c0 -7 -18 -123
-40 -258 -22 -135 -40 -255 -40 -267 0 -23 -2 -23 -125 -23 l-125 0 0 84 c0
185 91 342 254 440 65 39 76 42 76 24z m2410 -26 c149 -85 250 -267 250 -449
l0 -73 -124 0 -124 0 -12 88 c-7 48 -27 174 -45 280 -36 219 -40 208 55 154z
m-1230 -952 l0 -570 -37 0 -38 0 3 567 c2 512 4 569 18 580 12 9 22 9 35 2 18
-9 19 -34 19 -579z m-1270 281 c0 -38 -3 -83 -6 -100 l-6 -31 -159 0 -159 0 0
100 0 100 165 0 165 0 0 -69z m2830 -31 l0 -100 -160 0 -160 0 0 100 0 100
160 0 160 0 0 -100z m-2822 -245 c42 -223 185 -410 422 -553 l35 -22 -459 0
c-458 0 -460 0 -483 22 -18 17 -23 32 -23 74 0 117 85 246 198 301 31 15 60
31 63 36 4 6 5 54 2 108 l-6 99 119 0 119 0 13 -65z m2738 -40 l-7 -105 55
-24 c117 -52 201 -166 213 -290 5 -60 4 -66 -20 -90 l-26 -26 -463 0 -463 0
52 29 c82 45 145 95 215 169 105 112 170 236 198 380 l13 62 120 0 120 0 -7
-105z"/>
<path d="M2320 3273 c-31 -26 -32 -28 -28 -99 3 -65 7 -77 33 -104 42 -44 84
-53 226 -48 101 3 129 7 152 22 52 35 79 124 57 190 -20 62 -33 66 -231 66
l-177 0 -32 -27z"/>
<path d="M2029 2994 c-19 -23 -12 -83 17 -132 81 -138 306 -176 456 -77 22 15
40 21 43 15 18 -29 113 -63 187 -68 167 -10 304 81 316 209 4 41 1 49 -19 59
-20 11 -25 10 -41 -10 -10 -12 -18 -33 -18 -46 0 -32 -56 -93 -105 -115 -46
-21 -139 -25 -196 -8 -21 7 -59 29 -84 50 -49 41 -64 41 -96 3 -28 -35 -110
-64 -180 -64 -114 0 -198 58 -215 148 -4 18 -15 37 -25 42 -23 13 -24 13 -40
-6z"/>
</g>
</svg>
